<svg xmlns="http://www.w3.org/2000/svg" version="1.1" xmlns:xlink="http://www.w3.org/1999/xlink" xmlns:svgjs="http://svgjs.com/svgjs" width="41" height="45"><svg width="41" height="45" viewBox="0 0 41 45" fill="none" xmlns="http://www.w3.org/2000/svg">
<path fill-rule="evenodd" clip-rule="evenodd" d="M18.902 4.81494C12.1442 5.55573 6.23684 9.62168 3.1781 15.6374C2.07326 17.8104 1.45822 19.7947 1.12399 22.2648C0.959894 23.4777 0.958405 26.0658 1.12115 27.2472C1.68697 31.3548 3.20111 34.7529 5.86342 37.89C6.61595 38.7767 8.21357 40.37 8.41409 40.4337C8.49641 40.4599 8.90206 40.7311 9.31556 41.0365C11.8767 42.9279 15.0112 44.1693 18.4282 44.6456C19.4892 44.7935 22.2488 44.8136 23.3024 44.6812C28.9324 43.9734 33.7713 41.1512 37.1312 36.6159C38.3941 34.9111 39.5552 32.5941 40.1482 30.5954C42.0467 24.1964 40.7327 17.3904 36.5964 12.1982C35.9486 11.385 34.2963 9.742 33.4658 9.08527C31.1928 7.28765 28.7058 6.04665 25.9821 5.35087C24.2615 4.91126 23.3317 4.79724 21.2715 4.77298C20.2848 4.76132 19.2185 4.78023 18.902 4.81494ZM23.7425 5.28356C25.3647 5.52495 27.1007 6.00096 28.4969 6.5872C28.766 6.7002 28.9699 6.8191 28.95 6.85144C28.9112 6.91421 29.1119 7.01257 29.4075 7.07554C29.5073 7.09683 29.6306 7.15601 29.6816 7.20705C29.8088 7.33443 30.1096 7.48363 30.5123 7.61907C30.8754 7.74123 32.7674 8.95993 32.6531 8.99802C32.6154 9.01063 32.524 8.98847 32.4499 8.94874C32.3758 8.90902 32.2434 8.87655 32.1558 8.87655C32.068 8.87655 31.8299 8.83431 31.6266 8.78266C31.0584 8.63834 30.2302 8.59821 30.1372 8.71046C30.0751 8.78537 30.1283 8.81215 30.4219 8.85397L30.7831 8.90542L30.3907 8.95016C30.1415 8.97857 29.9678 9.03653 29.9149 9.10899C29.821 9.23752 29.5083 9.31819 28.8342 9.38774C28.553 9.41682 28.3166 9.48237 28.2249 9.55673L28.0752 9.67828L28.2306 9.88897C28.316 10.0048 28.3676 10.1295 28.3451 10.1659C28.3225 10.2025 28.3534 10.2323 28.4137 10.2323C28.4739 10.2323 28.504 10.2634 28.4805 10.3015C28.3614 10.4945 29.313 10.6508 29.7029 10.5023C29.8687 10.4392 29.9076 10.4602 30.1643 10.7512C30.3185 10.9261 30.4975 11.1553 30.5621 11.2608C30.6829 11.458 30.9668 11.5259 31.0573 11.3792C31.0822 11.3389 31.1753 11.3242 31.2644 11.3466C31.4585 11.3954 31.7647 11.3282 31.7647 11.2369C31.7647 11.2011 31.7151 11.122 31.6544 11.0612C31.5524 10.9591 31.5614 10.9446 31.7728 10.8707C32.0415 10.7769 32.0383 10.6684 31.7601 10.4477C31.5032 10.244 31.5016 10.0967 31.7563 10.0967C32.1438 10.0967 32.374 10.0178 32.374 9.8849C32.374 9.72207 32.4714 9.72648 32.8479 9.90632L33.1525 10.0519L32.7576 10.1167C32.3976 10.1758 32.3667 10.1944 32.4081 10.3256C32.433 10.4048 32.4525 10.5252 32.4514 10.5931C32.45 10.6766 32.5634 10.7697 32.801 10.8806C32.9943 10.9707 33.1982 11.0484 33.2541 11.0532C33.3099 11.0579 33.2667 11.0811 33.1581 11.1046C32.8744 11.1662 32.8703 11.2914 33.149 11.3836C33.2813 11.4273 33.3895 11.4911 33.3895 11.5256C33.3895 11.6134 33.3414 11.6041 33.1507 11.4789C32.9377 11.3392 32.7958 11.3951 32.7681 11.6297C32.7415 11.8558 32.4454 11.9848 32.215 11.8706C32.1349 11.8308 31.8298 11.7853 31.5369 11.7693C31.208 11.7515 30.9842 11.7076 30.9515 11.6544C30.9153 11.5959 30.8137 11.5821 30.6323 11.6112C30.4499 11.6403 30.3252 11.6232 30.2361 11.5565C30.1096 11.4619 30.1098 11.4602 30.2463 11.4945C30.4378 11.5427 30.5853 11.366 30.4484 11.2523C30.3937 11.2068 30.3108 11.1933 30.2643 11.2221C30.2177 11.251 30.1021 11.2813 30.0074 11.2896C29.837 11.3045 29.8368 11.3039 29.9876 11.2327C30.1612 11.1506 30.1897 11.0458 30.0384 11.0458C29.9813 11.0458 29.9369 10.9852 29.9369 10.9071C29.9369 10.784 29.9086 10.7736 29.683 10.8143C29.5434 10.8396 29.4063 10.8733 29.3784 10.8892C29.2875 10.9411 29.3247 11.1224 29.462 11.2973C29.536 11.3914 29.5799 11.4953 29.5596 11.5283C29.5393 11.5612 29.3407 11.5881 29.1183 11.5881C28.6458 11.5881 28.2469 11.7335 28.1972 11.9239C28.1603 12.0652 28.0974 12.0952 27.6859 12.1682C27.5457 12.1931 27.432 12.2527 27.432 12.3014C27.432 12.4209 26.9368 12.499 26.7646 12.4066C26.5756 12.3054 26.552 12.3133 26.552 12.4785C26.552 12.6116 26.5268 12.6199 26.2407 12.5806C25.8809 12.5312 25.5874 12.5869 25.6227 12.6977C25.6361 12.7399 25.8113 12.8296 26.0121 12.8971C26.4148 13.0324 26.8965 13.4737 26.9395 13.7466C26.9785 13.9948 26.7337 14.166 26.392 14.1292C26.238 14.1127 25.8027 14.0649 25.4247 14.0231C24.8785 13.9626 24.6875 13.9651 24.4939 14.0352C24.2517 14.123 24.1816 14.2491 24.3255 14.3382C24.4172 14.3949 24.3501 14.9941 24.2302 15.1906C24.1625 15.3012 24.1689 15.3355 24.2671 15.3913C24.3486 15.4377 24.3856 15.5424 24.3856 15.7266V15.9943H24.7453C25.0514 15.9943 25.1322 16.0228 25.2877 16.1853C25.5778 16.4885 25.4575 16.7079 24.7258 17.2097C24.1129 17.63 23.9794 17.8122 23.9794 18.2282C23.9794 18.4596 23.6311 18.8019 23.1848 19.0089C22.7271 19.2213 22.5328 19.4465 22.1828 20.1704C22.0187 20.5099 21.8379 20.8264 21.7811 20.8736C21.6356 20.9944 21.6513 21.3981 21.8242 21.9868C21.9565 22.4368 21.9619 22.5167 21.8809 22.8067C21.8315 22.9833 21.7157 23.2175 21.6237 23.3271L21.4562 23.5264L21.6347 23.8795C21.7328 24.0737 21.8131 24.3076 21.8131 24.3993C21.8131 24.5197 21.9777 24.7262 22.4069 25.144C22.7334 25.4619 23.0823 25.8655 23.182 26.0411C23.3192 26.2824 23.4508 26.4046 23.7222 26.5423C23.9195 26.6423 24.2118 26.8571 24.3719 27.0196C24.7049 27.3578 24.9143 27.3921 25.5299 27.209C25.9524 27.0834 26.311 27.071 26.5733 27.173C26.831 27.2733 27.0275 27.2663 27.1559 27.1522C27.3063 27.0186 28.3791 26.6509 28.7701 26.5989C29.1572 26.5475 29.2396 26.6151 29.2717 27.0108L29.2937 27.2811L29.8353 27.2578C30.308 27.2374 30.4004 27.253 30.5617 27.3802C30.7375 27.519 30.7443 27.5461 30.7037 27.9458C30.6784 28.1945 30.61 28.4317 30.5359 28.5274C30.2865 28.8495 30.4251 29.3104 30.9509 29.9076C31.2406 30.2367 31.3747 30.6348 31.6167 31.8841C31.7035 32.3321 31.6456 32.5276 31.2363 33.1705C30.8543 33.7705 30.8659 34.4269 31.27 35.0856C31.5016 35.463 31.5144 35.5155 31.5209 36.1054C31.5269 36.646 31.548 36.7524 31.6823 36.9189C31.9822 37.2905 32.1321 37.6964 32.1173 38.0965L32.1034 38.4723L32.3472 38.4888C32.5227 38.5006 32.681 38.4475 32.9115 38.2993C33.0878 38.186 33.2963 38.0933 33.3748 38.0933C33.4533 38.0933 33.7247 37.9888 33.9781 37.8611C34.3396 37.6788 34.5659 37.4906 35.0291 36.9872C35.6506 36.3117 35.9268 35.9156 35.8756 35.7727C35.8257 35.633 35.9508 35.4584 36.2253 35.2849C36.5205 35.0982 36.6843 34.6708 36.6179 34.2608C36.5846 34.056 36.6179 33.9692 36.8467 33.6628C36.9939 33.4657 37.247 33.205 37.409 33.0834C37.7564 32.8228 37.9746 32.4582 37.9806 32.1283C37.983 31.998 38.0226 31.7017 38.0686 31.4698C38.1331 31.1446 38.1341 31.008 38.0726 30.8731C38.0288 30.7768 37.993 30.4545 37.993 30.1569C37.993 29.695 38.0215 29.5593 38.1887 29.228C38.2963 29.0148 38.4487 28.782 38.5275 28.7108C38.6061 28.6396 38.7037 28.4581 38.7442 28.3073C38.7848 28.1566 38.9401 27.8945 39.0895 27.725C39.2388 27.5554 39.4347 27.2714 39.5248 27.0938C39.7866 26.5777 40.0807 25.6248 40.1314 25.1288C40.1831 24.6211 40.1381 24.5715 39.8393 24.8068C39.7446 24.8814 39.597 24.9424 39.511 24.9424C39.4252 24.9424 39.3361 24.9729 39.3131 25.0102C39.244 25.1221 39.17 25.0878 39.087 24.9053C38.9838 24.6784 38.9869 24.4591 39.0931 24.473C39.2725 24.4963 39.3394 24.463 39.3817 24.3295C39.4117 24.2348 39.4637 24.2032 39.5466 24.2295C39.6279 24.2554 39.704 24.2122 39.7787 24.0982C39.8398 24.0048 39.9834 23.8799 40.0977 23.8207C40.228 23.7533 40.2919 23.6771 40.2689 23.617C40.2259 23.5047 40.4646 23.3547 40.5762 23.4238C40.705 23.5034 40.6018 26.4955 40.4317 27.6137C40.2165 29.0291 39.4349 31.9266 39.4196 31.3653C39.4123 31.0929 39.3347 31.1397 39.1438 31.532C39.0508 31.7233 38.8429 32.0264 38.6819 32.2057C38.4335 32.4825 38.3805 32.5938 38.3313 32.9428C38.2994 33.169 38.1953 33.4871 38.1001 33.6497C37.9756 33.8625 37.9194 34.071 37.8998 34.3925C37.874 34.8181 37.8484 34.8758 37.3634 35.6021C35.4009 38.5404 32.7744 40.8496 29.6322 42.3991C27.8031 43.3012 26.1996 43.8227 24.2164 44.1605C21.7514 44.5805 19.1735 44.509 16.6865 43.9517C14.066 43.3646 11.4244 42.1398 9.21449 40.4874C8.6096 40.0351 8.46879 39.8379 8.66897 39.7237C8.76639 39.6681 8.75001 39.6319 8.5442 39.4478C8.41145 39.3291 8.38085 39.2828 8.47468 39.3425C8.73173 39.5062 8.8827 39.4802 8.8827 39.2724C8.8827 39.129 8.90504 39.1057 9.00117 39.1488C9.21665 39.2455 9.76217 39.2629 9.86629 39.1763C9.99667 39.068 9.99363 38.8109 9.8606 38.7004C9.80272 38.6523 9.72676 38.5593 9.69176 38.4939C9.63151 38.3811 9.64633 38.3813 9.97413 38.4969C10.3972 38.6461 10.5604 38.6104 10.7026 38.3372C10.7629 38.2217 11.0165 37.919 11.2664 37.6644L11.7205 37.2017L11.6556 36.8587C11.6199 36.6701 11.5906 36.5076 11.5906 36.4977C11.5906 36.4878 11.682 36.4478 11.7937 36.4088C11.9054 36.3698 11.9968 36.3085 11.9968 36.2725C11.9968 36.2366 12.1169 36.1869 12.2637 36.162C12.4105 36.1372 12.5666 36.0735 12.6105 36.0205C12.6616 35.9588 12.8229 35.9241 13.0589 35.9241C13.4634 35.9241 13.6893 35.838 13.6893 35.6839C13.6893 35.629 13.7807 35.4577 13.8924 35.3032C14.0041 35.1489 14.0965 34.9585 14.0978 34.8802C14.0992 34.8019 14.1438 34.6616 14.197 34.5683C14.3085 34.373 14.3317 33.5799 14.2336 33.3214C14.1769 33.1721 14.1953 33.1312 14.3768 33.0017C14.6639 32.797 15.3616 31.8387 15.4466 31.5323C15.5474 31.1689 15.533 30.7573 15.4136 30.5866C15.3527 30.4995 15.2067 30.4219 15.0582 30.3977C14.6925 30.3384 14.5401 30.2641 14.2514 30.0048C13.9438 29.7284 13.7618 29.6637 13.3334 29.6788C13.1346 29.6857 12.9478 29.6484 12.8453 29.5812C12.7331 29.5075 12.6126 29.4869 12.4735 29.5175C12.3 29.5557 12.2676 29.5423 12.2676 29.4329C12.2676 29.2666 11.5937 28.9148 11.2752 28.9148C11.132 28.9148 11.049 28.8816 11.049 28.8246C11.049 28.7749 10.9957 28.7173 10.9306 28.6964C10.8654 28.6755 10.7456 28.6267 10.6643 28.5878C10.4397 28.4804 10.3044 28.5668 10.3044 28.8178C10.3044 28.9853 10.2857 29.0181 10.2249 28.9573C10.1325 28.8647 10.2101 28.6525 10.4817 28.2553L10.6499 28.0093L10.4771 27.7544C10.3821 27.6141 10.3044 27.4603 10.3044 27.4124C10.3044 27.2805 9.97514 26.9165 9.75052 26.8003C9.64098 26.7435 9.30561 26.6538 9.0053 26.601C8.47772 26.5081 8.44706 26.4922 8.09706 26.1303C7.89782 25.9244 7.67651 25.7559 7.6053 25.7559C7.5271 25.7559 7.46042 25.6949 7.4372 25.6022C7.41425 25.5106 7.31169 25.4158 7.18293 25.3671C6.99953 25.2978 6.98003 25.2699 7.05308 25.1818C7.12748 25.092 7.10792 25.078 6.90895 25.078C6.78236 25.078 6.60681 25.1284 6.51894 25.1901C6.39262 25.2787 6.33284 25.2858 6.234 25.224C6.16522 25.1809 6.01615 25.1458 5.90275 25.1458C5.78198 25.1458 5.6805 25.1037 5.65768 25.0441C5.63622 24.9881 5.57529 24.9424 5.52229 24.9424C5.46921 24.9424 5.40828 24.8966 5.38689 24.8407C5.36543 24.7848 5.29022 24.739 5.21974 24.739C5.07629 24.739 5.04528 24.8478 5.17621 24.8916C5.22279 24.9072 5.17682 24.9361 5.07406 24.9558C4.93101 24.9832 4.90359 24.972 4.9568 24.9078C5.0289 24.8208 4.9809 24.6035 4.88951 24.6035C4.86087 24.6035 4.79846 24.6504 4.75093 24.7078C4.70341 24.7651 4.51683 24.8756 4.33642 24.9534C4.13704 25.0393 4.00821 25.1379 4.00794 25.2049C4.00774 25.2656 3.9483 25.4051 3.876 25.5151L3.74446 25.7148L3.675 25.532C3.59986 25.3341 3.35824 25.2816 3.20917 25.4309C3.14553 25.4946 3.08271 25.4611 2.92328 25.2784L2.71897 25.0441L2.76006 24.3622C2.80819 23.563 2.7625 23.4772 2.32842 23.5506L2.06534 23.5951L2.11584 23.3028C2.1436 23.142 2.21522 22.8336 2.275 22.6173C2.4173 22.1025 2.41615 22.0953 2.18882 22.0953C1.96108 22.0953 1.89799 22.1646 1.77755 22.5473C1.68657 22.8365 1.43547 23.0106 1.43629 22.7837C1.43696 22.5922 1.63214 21.3432 1.75047 20.7734C1.87362 20.1803 1.95607 20.0131 2.0694 20.1266C2.18205 20.2394 2.2287 20.2105 2.27026 20.0024C2.31264 19.7901 2.58337 19.6796 2.72323 19.8175C2.77854 19.872 2.82295 19.8596 2.88794 19.7716C2.96789 19.6632 2.98116 19.662 3.0188 19.7601C3.04182 19.8202 3.06064 19.9894 3.06064 20.1361C3.06064 20.5127 3.20775 20.9505 3.32656 20.9276C3.48091 20.8979 3.53345 20.5538 3.46548 20.0172C3.37253 19.283 3.41795 19.1571 3.9835 18.5796C4.25525 18.3021 4.46288 18.0514 4.445 18.0224C4.42706 17.9933 4.44338 17.9504 4.48122 17.927C4.51907 17.9036 4.55014 17.8176 4.55027 17.7359C4.55054 17.5873 4.73793 17.182 5.00846 16.7448C5.08753 16.617 5.13735 16.4882 5.11914 16.4587C5.10093 16.4292 5.16349 16.3856 5.25806 16.3618C5.3527 16.338 5.43008 16.2897 5.43008 16.2543C5.43008 16.219 5.56717 16.1294 5.73472 16.0551C6.04106 15.9194 6.11153 15.8286 5.95474 15.7714C5.80479 15.7168 5.99184 15.5004 6.4 15.2561C6.61121 15.1297 6.78405 14.9848 6.78405 14.9341C6.78405 14.8834 6.82446 14.8419 6.87388 14.8419C6.93515 14.8419 6.95424 14.9065 6.93386 15.0453C6.90929 15.2131 6.92764 15.2487 7.03886 15.2487C7.11299 15.2487 7.21549 15.1979 7.2666 15.136C7.37221 15.0079 8.2441 14.4352 8.33353 14.4352C8.44083 14.4352 8.54718 14.2506 8.50426 14.1388C8.44144 13.9747 8.28106 14.0053 8.19339 14.1979C8.11317 14.3742 8.0301 14.4161 7.99131 14.2998C7.97892 14.2626 7.83933 14.2271 7.68105 14.2208C7.38067 14.2091 7.31176 14.1129 7.49488 13.9607C7.55073 13.9142 7.59643 13.8303 7.59643 13.774C7.59643 13.6937 7.538 13.6795 7.32563 13.708C7.1767 13.728 7.05484 13.7176 7.05484 13.6848C7.05484 13.5707 7.4412 13.4265 8.04148 13.3165C8.4562 13.2406 8.73071 13.1478 8.91654 13.0209C9.06548 12.9192 9.27352 12.7989 9.37886 12.7534C9.56949 12.6711 9.56922 12.6722 9.31461 12.9937C9.17393 13.1713 9.02682 13.3478 8.9877 13.3858C8.88012 13.4904 8.73389 13.7665 8.76801 13.8006C8.78453 13.8172 8.98607 13.8005 9.21577 13.7634C9.44547 13.7264 9.67815 13.7132 9.73278 13.7343C9.78748 13.7553 9.87427 13.7375 9.92572 13.6947C9.99748 13.6351 10.0449 13.6427 10.1297 13.7277C10.1904 13.7885 10.2857 13.8208 10.3415 13.7993C10.491 13.7419 10.5442 13.5459 10.4338 13.4594C10.3813 13.4182 10.3352 13.3464 10.3314 13.2997C10.3086 13.0137 10.3019 13.0033 10.1675 13.046C10.0921 13.0699 9.93771 13.0691 9.82424 13.0442C9.62352 13 9.62122 12.9952 9.73921 12.8647C9.89147 12.6962 9.92207 12.2735 9.79439 12.1022C9.72595 12.0103 9.58804 11.9632 9.32395 11.9413C9.11849 11.9242 8.95039 11.8835 8.95039 11.8508C8.95039 11.8182 8.89041 11.7914 8.8171 11.7914C8.72198 11.7914 8.69592 11.76 8.72604 11.6814C8.75143 11.6151 8.7236 11.5463 8.65618 11.5086C8.59464 11.474 8.5442 11.4067 8.5442 11.3589C8.5442 11.3112 8.46994 11.2323 8.37916 11.1836C8.22521 11.1011 8.18797 11.1186 7.82193 11.4453C7.39414 11.827 7.2121 11.8659 7.24358 11.5687C7.26227 11.392 7.25056 11.3847 6.94537 11.3847C6.63193 11.3847 6.62929 11.3829 6.7502 11.2491C6.82074 11.1711 6.96162 11.1123 7.08226 11.1107C7.42522 11.106 7.97107 10.9526 8.09746 10.8255C8.16232 10.7602 8.2552 10.7068 8.30381 10.7068C8.43189 10.7068 8.55287 10.5372 8.50812 10.4204C8.48341 10.356 8.4105 10.3316 8.30387 10.352C8.20795 10.3703 8.13801 10.3518 8.13801 10.308C8.13801 10.2636 8.26298 10.2323 8.44069 10.2323C8.67188 10.2323 8.81574 10.1812 9.04998 10.0159C9.21861 9.8969 9.35658 9.77454 9.35658 9.7441C9.35658 9.71367 9.24238 9.706 9.10271 9.72715C8.96312 9.7483 8.7477 9.77678 8.62402 9.79033C8.40786 9.81413 8.40285 9.80945 8.49336 9.66784C8.61671 9.47471 9.98618 8.43809 10.3547 8.25893C10.7076 8.08729 11.0257 8.15324 10.9991 8.39254C10.9882 8.48988 11.0205 8.5376 11.0972 8.5376C11.1861 8.5376 11.1934 8.5557 11.1303 8.61895C11.0856 8.66369 11.049 8.74375 11.049 8.79689C11.049 8.89254 11.2062 8.88597 11.5568 8.77561C11.6312 8.75215 11.5834 8.79371 11.4504 8.86794C11.3174 8.94217 11.1722 9.0469 11.1276 9.10059C11.0302 9.21827 11.0932 9.41885 11.2276 9.41885C11.2807 9.41885 11.3416 9.46461 11.363 9.52054C11.3845 9.57646 11.4278 9.62222 11.4594 9.62222C11.491 9.62222 11.5908 9.69638 11.6813 9.78701C11.9021 10.0081 12.3365 10.1215 12.6405 10.0374C12.7825 9.99817 12.891 9.99702 12.9142 10.0346C12.9353 10.0687 13.1021 10.0967 13.2848 10.0967C13.5617 10.0967 13.6511 10.0633 13.8224 9.89568C13.9353 9.78505 14.0278 9.64839 14.0278 9.59199C14.0278 9.53558 14.1475 9.42828 14.2937 9.35357C14.4654 9.26586 14.5674 9.16322 14.5814 9.06405C14.6046 8.9002 14.7385 8.85153 15.7541 8.6378C16.0147 8.58289 16.2965 8.52208 16.3803 8.50263C16.4849 8.47829 16.5326 8.41742 16.5326 8.30828C16.5326 8.18348 16.595 8.12545 16.8226 8.03841C16.9821 7.9774 17.203 7.92642 17.3134 7.92514C17.8028 7.91924 19.5127 7.5885 19.7981 7.44452C19.8628 7.41191 19.9618 7.3852 20.0181 7.3852C20.163 7.3852 20.1453 7.26766 19.9877 7.18319C19.799 7.08205 19.8876 6.92248 20.161 6.87109C20.2877 6.8473 20.3914 6.80066 20.3914 6.76758C20.3914 6.73443 20.4657 6.70732 20.5567 6.70732C20.6476 6.70732 20.7407 6.67681 20.7637 6.63953C20.7868 6.60225 20.918 6.57127 21.0555 6.57072C21.2417 6.56991 21.2795 6.55296 21.2038 6.50395C21.0704 6.41759 20.7976 6.41759 20.7976 6.50395C20.7976 6.54124 20.7671 6.57174 20.7299 6.57174C20.6927 6.57174 20.6622 6.52856 20.6622 6.47569C20.6622 6.42288 20.6242 6.36431 20.5776 6.34546C20.5311 6.32669 20.6206 6.30886 20.7767 6.30594C21.1037 6.29977 21.2171 6.19152 20.9881 6.10393C20.8351 6.04543 20.8362 6.04306 21.0345 6.0009C21.1462 5.97717 21.329 5.92721 21.4407 5.88986C21.5524 5.85251 21.8875 5.80356 22.1854 5.78106C22.4833 5.75855 22.7723 5.71612 22.8276 5.6867C23.0252 5.58176 22.5909 5.5457 21.39 5.56739C20.383 5.58549 20.2115 5.57437 20.2773 5.49513C20.3432 5.41575 20.1153 5.40605 18.7824 5.43134C17.9173 5.44781 17.2096 5.45547 17.2096 5.44835C17.2096 5.42036 18.7024 5.20858 19.3082 5.15063C20.3397 5.05199 22.6523 5.12134 23.7425 5.28356ZM17.0911 5.532C17.0446 5.55085 16.9684 5.55085 16.9219 5.532C16.8754 5.51323 16.9134 5.49784 17.0065 5.49784C17.0996 5.49784 17.1377 5.51323 17.0911 5.532ZM20.5085 6.00259C20.486 6.0251 20.4276 6.02754 20.3787 6.00795C20.3247 5.98632 20.3408 5.97025 20.4196 5.967C20.491 5.96409 20.5309 5.98008 20.5085 6.00259ZM19.3082 7.31741C19.3836 7.36622 19.3434 7.38337 19.1519 7.38419C18.997 7.3848 18.9108 7.35815 18.9359 7.31741C18.9888 7.23173 19.1758 7.23173 19.3082 7.31741ZM19.5621 8.10952C19.3384 8.14599 19.3136 8.26448 19.5283 8.2712C19.6682 8.2756 19.6699 8.28014 19.5496 8.32733C19.3762 8.39532 19.5283 8.49503 19.715 8.43572C19.7921 8.41125 19.8498 8.42386 19.8498 8.46527C19.8498 8.50507 19.8118 8.54025 19.7652 8.54343C19.5684 8.55699 20.1328 8.67854 20.6961 8.74388C21.3045 8.81452 21.9367 8.76164 22.4731 8.59529C22.7275 8.51645 22.7618 8.36481 22.5408 8.2958C22.457 8.26957 22.3687 8.2173 22.3445 8.17948C22.3179 8.13799 21.9829 8.11684 21.4983 8.12593C20.3082 8.14843 20.1036 8.14653 19.9175 8.11122C19.8244 8.09359 19.6645 8.09284 19.5621 8.10952ZM11.8558 8.42657C11.8403 8.44012 11.692 8.46853 11.5265 8.48975C11.3316 8.51469 11.2599 8.50635 11.3234 8.46622C11.4138 8.40887 11.9193 8.37132 11.8558 8.42657ZM24.6566 10.0459C24.6567 10.0925 24.7459 10.1904 24.8549 10.2635C24.9638 10.3366 25.0381 10.4205 25.0199 10.4499C25.0018 10.4794 25.0192 10.5035 25.0586 10.5035C25.098 10.5035 25.1303 10.5678 25.1303 10.6464C25.1303 10.7675 25.158 10.7823 25.3114 10.7438C25.4747 10.7028 25.4833 10.7093 25.3985 10.8116C25.3176 10.9092 25.3205 10.9365 25.4195 11.009C25.4827 11.0552 25.5145 11.113 25.4903 11.1372C25.4661 11.1615 25.4944 11.1814 25.5534 11.1814C25.6124 11.1814 25.6784 11.1433 25.7001 11.0966C25.7317 11.0288 25.7475 11.0288 25.779 11.0966C25.8008 11.1433 25.8788 11.1814 25.9523 11.1814C26.0259 11.1814 26.0672 11.2119 26.0442 11.2491C26.0212 11.2864 25.9128 11.3169 25.8033 11.3169C25.595 11.3169 25.5543 11.3754 25.6768 11.4981C25.7286 11.55 25.6979 11.5838 25.5705 11.6159C25.3836 11.6629 25.3695 11.8394 25.5553 11.8066C25.7589 11.7707 25.7426 11.922 25.5309 12.0316C25.2394 12.1825 25.3636 12.2758 25.7396 12.1882C25.9071 12.1492 26.3527 12.132 26.7297 12.15C27.4086 12.1824 27.7019 12.1277 27.511 12.0042C27.4382 11.9572 27.4414 11.9379 27.5279 11.9047C27.7195 11.8311 27.6558 11.6034 27.4297 11.5537C27.3167 11.5288 27.1734 11.4307 27.1113 11.3357C27.0491 11.2406 26.8988 11.1213 26.7775 11.0705C26.6561 11.0197 26.5242 10.9172 26.4843 10.8425C26.4398 10.7592 26.3409 10.706 26.228 10.7046L26.0442 10.7023L26.1965 10.5751C26.4647 10.3511 26.3955 10.2329 25.9934 10.228C25.7049 10.2245 25.6675 10.2118 25.7947 10.1608C25.8809 10.1262 25.9324 10.0671 25.9092 10.0295C25.8425 9.92144 25.2939 9.94713 25.198 10.0628C25.1516 10.1188 25.0727 10.1645 25.0226 10.1645C24.9694 10.1645 24.9476 10.1222 24.9704 10.0628C24.9989 9.98848 24.9619 9.96116 24.8329 9.96116C24.7358 9.96116 24.6565 9.99933 24.6566 10.0459ZM24.2747 10.8763C24.2533 10.9322 24.1646 10.978 24.0777 10.978C23.8691 10.978 23.7933 11.1121 23.9408 11.2201C24.0507 11.3006 24.0492 11.311 23.9173 11.3817C23.5716 11.567 23.8769 11.8672 24.3022 11.7603C24.404 11.7348 24.6242 11.6931 24.7918 11.6677C25.0775 11.6244 25.0952 11.6095 25.0759 11.4285C25.0625 11.3033 25.0979 11.2043 25.1765 11.1468C25.2926 11.0618 25.2924 11.0521 25.1697 10.9163C25.0086 10.7382 24.3391 10.7082 24.2747 10.8763ZM32.013 11.1588C31.9351 11.2367 31.9636 11.3169 32.0694 11.3169C32.1252 11.3169 32.1709 11.2712 32.1709 11.2152C32.1709 11.1094 32.0908 11.0808 32.013 11.1588ZM34.0645 11.2465C34.2296 11.3511 34.1145 11.3717 33.8972 11.2765C33.7433 11.209 33.7269 11.187 33.8295 11.1854C33.904 11.1843 34.0097 11.2118 34.0645 11.2465ZM5.70087 12.6422C5.70087 12.7553 5.47551 13.085 5.28121 13.2562C5.12063 13.3977 5.05348 13.5188 5.04251 13.6864C5.02606 13.9378 4.81362 14.2095 4.69224 14.1343C4.58419 14.0675 4.60084 13.9607 4.71925 13.9607C4.7751 13.9607 4.8208 13.9302 4.8208 13.8929C4.8208 13.8556 4.78769 13.8251 4.74714 13.8251C4.67531 13.8251 5.17967 13.0615 5.45229 12.7574C5.58085 12.6141 5.70087 12.5585 5.70087 12.6422ZM7.63468 13.479C7.58654 13.557 7.75606 13.6217 8.00817 13.6217C8.22061 13.6217 8.27355 13.5268 8.09861 13.4595C7.94 13.3986 7.67753 13.4096 7.63468 13.479ZM31.477 14.2322C31.5421 14.2325 31.6433 14.3164 31.7017 14.4187C31.7968 14.5853 31.9091 14.666 32.2386 14.8046C32.2945 14.828 32.4011 14.8846 32.4756 14.9301C32.9174 15.2007 32.9857 15.2737 33.0247 15.5176C33.0482 15.6654 33.1541 15.8678 33.2795 16.0049C33.3975 16.1338 33.4994 16.3102 33.5059 16.3968C33.5333 16.7604 34.0665 17.0566 34.0665 16.7082C34.0665 16.5877 34.0948 16.5518 34.1675 16.5797C34.3492 16.6495 34.3761 16.3931 34.2018 16.2518C34.1149 16.1814 34.003 16.0449 33.9531 15.9486C33.8723 15.7928 33.8738 15.783 33.9665 15.8601C34.0529 15.9318 34.0865 15.925 34.1627 15.8207C34.2414 15.7129 34.2803 15.7063 34.4314 15.7752C34.5286 15.8196 34.6081 15.8997 34.6081 15.9533C34.6081 16.0069 34.6462 16.0648 34.6927 16.0819C34.7572 16.1056 34.7586 16.1329 34.6984 16.197C34.6375 16.262 34.6837 16.363 34.9015 16.6411C35.0566 16.8391 35.212 17.0034 35.2469 17.0061C35.2817 17.0089 35.3806 17.0774 35.4666 17.1583C35.6048 17.2884 35.6423 17.2952 35.7886 17.2168C35.937 17.1372 35.976 17.1465 36.1664 17.3068C36.3899 17.4952 36.5654 17.5322 36.6819 17.4156C36.8884 17.2088 37.1631 17.7738 37.0382 18.1487C37.0044 18.2501 36.9453 18.4626 36.9068 18.6211C36.8324 18.9277 36.7842 18.9559 36.5499 18.8294C36.4686 18.7854 36.2327 18.7453 36.0257 18.7401C35.7587 18.7335 35.5153 18.6679 35.1888 18.5149C34.9354 18.3962 34.6733 18.2991 34.6061 18.2991C34.5389 18.2991 34.4247 18.2178 34.3524 18.1183C34.2471 17.9735 34.1702 17.9394 33.9665 17.9471C33.6362 17.9595 33.5249 18.0594 33.5249 18.3435C33.5249 18.4835 33.486 18.5895 33.426 18.6125C33.3096 18.6573 32.7658 18.4064 32.2304 18.0609C31.965 17.8896 31.731 17.7991 31.4568 17.7618C30.9371 17.6913 30.718 17.4648 30.785 17.0676C30.8125 16.9043 30.8 16.7674 30.7523 16.7098C30.6992 16.6457 30.6972 16.6027 30.7459 16.5726C30.8553 16.5049 30.8326 16.3127 30.7203 16.3559C30.6672 16.3763 30.5898 16.352 30.5484 16.3021C30.4922 16.2343 30.3144 16.2179 29.8495 16.2376C29.5066 16.2521 29.1651 16.2607 29.0906 16.2566C28.2112 16.2085 27.7763 16.2542 27.1692 16.4585C26.4241 16.7092 26.2818 16.7168 25.875 16.5274L25.5703 16.3857L25.8073 16.2968C25.9376 16.248 26.1925 16.2057 26.3738 16.2028C26.6436 16.1986 26.7479 16.1585 26.9492 15.9817C27.35 15.6296 27.4586 15.4642 27.364 15.3499C27.2457 15.2072 27.6223 14.8419 27.8878 14.8419C28.1581 14.8419 28.3425 14.6944 28.2957 14.5155C28.2468 14.3282 28.4538 14.2577 28.7237 14.3696C28.9424 14.4604 29.2201 14.4248 29.5623 14.2623C29.7628 14.167 29.8118 14.1665 30.0293 14.2575C30.163 14.3135 30.3286 14.4519 30.3974 14.565C30.5382 14.797 30.8841 15.0523 31.2126 15.167C31.6838 15.3315 32.419 16.1299 32.0992 16.1299C32.0598 16.1299 32.0464 16.1604 32.0694 16.1977C32.1487 16.3263 32.3525 16.265 32.4328 16.0884C32.4907 15.9612 32.4929 15.8865 32.4404 15.8233C32.335 15.6961 32.4734 15.6313 32.6492 15.7255C32.7276 15.7676 32.8051 15.7886 32.8214 15.7723C32.9001 15.6935 32.7403 15.5196 32.4378 15.3547C32.2538 15.2545 32.1032 15.1438 32.1032 15.1089C32.1032 15.0739 32.0329 15.0453 31.9469 15.0453C31.7587 15.0453 31.6331 14.9496 31.4288 14.6508C31.3442 14.527 31.2024 14.3982 31.1136 14.3644C31.0202 14.3288 30.9523 14.2476 30.9523 14.1714C30.9523 13.9908 31.088 13.9609 31.2359 14.109C31.3033 14.1765 31.4119 14.232 31.477 14.2322ZM29.9665 14.5316C29.8602 14.6094 29.8528 14.6503 29.9189 14.7955C29.9816 14.9334 29.9776 14.9833 29.8984 15.0492C29.8241 15.1109 29.8185 15.1537 29.8759 15.2229C29.9178 15.2734 29.9344 15.3608 29.9127 15.4172C29.8182 15.6639 30.0749 15.829 30.2618 15.6418C30.3763 15.5272 30.3628 15.2104 30.2382 15.0855C30.1637 15.011 30.1459 14.9134 30.1765 14.7495C30.2266 14.4827 30.1465 14.3997 29.9665 14.5316ZM35.7946 14.7476C35.8861 14.8077 35.9458 14.8812 35.9274 14.9109C35.909 14.9408 35.9896 15.0457 36.1064 15.1441C36.2696 15.2816 36.3633 15.3134 36.5102 15.2811C36.6726 15.2454 36.7504 15.2859 37.0245 15.5489C37.2021 15.7193 37.3693 15.8588 37.396 15.8588C37.4844 15.8588 37.8023 16.3262 37.7602 16.3943C37.6971 16.4965 37.1669 16.3136 36.8712 16.0877C36.6377 15.9095 36.5633 15.8916 36.0067 15.8797C35.4519 15.868 35.3823 15.8513 35.2239 15.6927C35.0747 15.5433 35.0619 15.4997 35.1337 15.3846C35.1797 15.3108 35.2173 15.2015 35.2173 15.1417C35.2173 15.025 35.487 14.6485 35.5751 14.6423C35.6044 14.6403 35.7031 14.6876 35.7946 14.7476ZM36.8931 15.1524C36.8772 15.1684 36.7601 15.1443 36.633 15.0989L36.4021 15.0163L36.6052 14.977C36.7394 14.9511 36.8275 14.9692 36.8653 15.0305C36.8966 15.0815 36.9091 15.1363 36.8931 15.1524ZM28.156 15.292C28.0928 15.3553 28.1691 15.452 28.2823 15.452C28.3359 15.452 28.3798 15.4063 28.3798 15.3503C28.3798 15.2482 28.2369 15.211 28.156 15.292ZM4.24468 15.5887C4.22126 15.6266 4.17699 15.642 4.14625 15.623C4.11545 15.6039 4.04294 15.7026 3.98513 15.8422L3.87999 16.096L3.87654 15.8079C3.87316 15.531 3.88108 15.5198 4.08011 15.5198C4.20312 15.5198 4.26994 15.5477 4.24468 15.5887ZM38.9243 16.779C38.8914 16.8121 38.4658 15.9813 38.4702 15.8926C38.472 15.8554 38.5806 16.0338 38.7115 16.2893C38.8425 16.5448 38.9382 16.7651 38.9243 16.779ZM31.0877 16.1224C31.0877 16.1656 31.1563 16.229 31.2401 16.2631C31.3239 16.2973 31.4838 16.3878 31.5955 16.4644C31.8814 16.6603 31.9543 16.6406 31.9543 16.3672C31.9543 16.1858 31.9262 16.1299 31.8351 16.1299C31.7695 16.1299 31.5746 16.1105 31.4019 16.0868C31.1839 16.0569 31.0877 16.0677 31.0877 16.1224ZM39.4146 17.951C39.4146 17.9706 39.3385 17.8832 39.2454 17.7568C39.1488 17.6257 39.0774 17.4382 39.079 17.32C39.0815 17.1393 39.1031 17.164 39.2482 17.5141C39.3398 17.7349 39.4146 17.9314 39.4146 17.951ZM34.5065 17.3864C34.7411 17.494 34.9465 17.5124 34.9465 17.4258C34.9465 17.3529 34.703 17.2825 34.4727 17.2887C34.3072 17.2932 34.308 17.2954 34.5065 17.3864ZM36.4867 17.6002C36.3074 17.6471 36.3418 17.8246 36.5302 17.8246C36.6642 17.8246 36.7744 17.715 36.7744 17.5818C36.7744 17.5486 36.6542 17.5563 36.4867 17.6002ZM39.7233 20.0782C39.7928 20.2369 39.9498 20.5007 40.0722 20.6645C40.2928 20.9599 40.3642 21.2986 40.224 21.3853C40.1007 21.4617 39.9562 21.2734 39.9562 21.0363C39.9562 20.9103 39.928 20.8073 39.8935 20.8073C39.8116 20.8073 39.5059 20.1619 39.4448 19.8596C39.4037 19.6565 39.4109 19.6352 39.4969 19.7067C39.5519 19.7523 39.6537 19.9195 39.7233 20.0782ZM37.4006 20.2698C37.5403 20.5092 37.6545 20.7575 37.6545 20.8215C37.6545 20.8857 37.7084 20.967 37.7744 21.0023C37.9016 21.0705 38.1292 21.6253 38.1287 21.8658C38.1285 21.9447 38.1904 22.0882 38.2662 22.1846C38.342 22.2812 38.4386 22.4607 38.4808 22.5836C38.523 22.7065 38.6322 22.9209 38.7235 23.06C38.8148 23.1992 38.8745 23.3704 38.8562 23.4405C38.8379 23.5106 38.8505 23.7439 38.8842 23.9591C38.9179 24.1742 38.9299 24.3657 38.911 24.3848C38.892 24.4037 38.8169 24.2853 38.7442 24.1216C38.6714 23.9578 38.537 23.7554 38.4454 23.6716C38.3539 23.5878 38.2588 23.4047 38.2342 23.2648C38.2096 23.1249 38.1035 22.8426 37.9984 22.6376C37.8932 22.4325 37.7883 22.1173 37.7652 21.9372C37.7421 21.757 37.6621 21.5318 37.5873 21.4366C37.5126 21.3414 37.4514 21.2241 37.4514 21.1758C37.4514 21.1275 37.3186 20.8015 37.1562 20.4513C36.8807 19.8568 36.8706 19.8152 37.0039 19.8246C37.1033 19.8316 37.2241 19.9671 37.4006 20.2698ZM3.70377 20.3328C3.68076 20.3701 3.70946 20.4006 3.76748 20.4006C3.8255 20.4006 3.87302 20.3701 3.87302 20.3328C3.87302 20.2955 3.84438 20.265 3.80932 20.265C3.77425 20.265 3.72679 20.2955 3.70377 20.3328ZM3.73762 20.909C3.73762 20.9649 3.76809 21.0107 3.80532 21.0107C3.84256 21.0107 3.87302 20.9649 3.87302 20.909C3.87302 20.8531 3.84256 20.8073 3.80532 20.8073C3.76809 20.8073 3.73762 20.8531 3.73762 20.909ZM2.80163 21.5743C2.62785 21.7596 2.58885 22.0308 2.756 21.8919C2.82613 21.8336 2.85755 21.831 2.85755 21.8836C2.85755 21.9255 2.89153 21.9597 2.93316 21.9597C2.97588 21.9597 2.99308 21.8996 2.97263 21.8214C2.94237 21.7056 2.96045 21.69 3.08318 21.7257C3.44104 21.83 3.6113 21.9387 3.68814 22.1122C3.75922 22.2728 3.80999 22.2986 4.05479 22.2986C4.21104 22.2986 4.35794 22.2679 4.38116 22.2302C4.46558 22.0934 4.33513 21.8862 4.13989 21.847C4.03204 21.8255 3.90741 21.7639 3.863 21.7104C3.75245 21.577 3.35418 21.4174 3.13186 21.4174C3.02808 21.4174 2.8851 21.4853 2.80163 21.5743ZM4.52746 21.7338C4.44954 21.8117 4.47811 21.8919 4.58385 21.8919C4.6397 21.8919 4.6854 21.8462 4.6854 21.7902C4.6854 21.6843 4.60531 21.6557 4.52746 21.7338ZM4.65284 22.3045C4.68757 22.463 4.66996 22.4949 4.53728 22.5137C4.45123 22.5259 4.38076 22.5817 4.38076 22.6376C4.38076 22.7125 4.44114 22.7332 4.60998 22.7162C4.73604 22.7036 4.85972 22.7265 4.88477 22.7672C4.91598 22.8176 5.01942 22.798 5.21081 22.7054C5.36509 22.6309 5.54544 22.5698 5.61165 22.5698C5.70683 22.5698 5.68605 22.5236 5.51294 22.3503C5.32677 22.1639 5.24235 22.1299 4.95281 22.1242C4.61466 22.1176 4.61215 22.1191 4.65284 22.3045ZM5.93701 22.5033C5.86457 22.6206 6.00613 22.7251 6.16793 22.6737C6.30874 22.6289 6.36791 22.502 6.24801 22.502C6.21382 22.502 6.14071 22.4847 6.0856 22.4635C6.0305 22.4423 5.96361 22.4603 5.93701 22.5033ZM3.66993 22.7732C3.66993 22.9161 3.77662 22.9464 3.93246 22.8475C4.0535 22.7707 3.9703 22.6376 3.80133 22.6376C3.71508 22.6376 3.66993 22.6842 3.66993 22.7732ZM1.50439 23.9286C1.55347 24.1112 1.63349 24.228 1.74398 24.2784C1.83517 24.32 1.90977 24.3797 1.90977 24.411C1.90977 24.4423 1.95486 24.4679 2.00996 24.4679C2.13344 24.4679 2.38366 24.9427 2.38366 25.1769C2.38366 25.2756 2.42238 25.3491 2.47431 25.3491C2.5242 25.3491 2.60009 25.4263 2.64301 25.5205C2.68586 25.6148 2.77455 25.7119 2.84001 25.7363C2.90554 25.7608 2.9989 25.8362 3.04757 25.9039C3.17539 26.0818 3.33143 26.0585 3.33143 25.8615C3.33143 25.7705 3.3619 25.6772 3.39913 25.6542C3.43677 25.6309 3.46703 25.6818 3.46724 25.7688C3.46751 25.8549 3.51097 26.0085 3.56391 26.1101C3.70344 26.3779 3.7167 27.0436 3.58659 27.2494C3.5285 27.3414 3.46047 27.4853 3.43549 27.5692C3.41044 27.6531 3.36163 27.7217 3.3269 27.7217C3.22224 27.7217 3.24965 28.7825 3.35702 28.89C3.4363 28.9694 3.4363 29.0027 3.35702 29.1112C3.22061 29.2981 3.24282 29.5692 3.41606 29.8317C3.67169 30.219 3.85054 30.5848 3.97545 30.9756C4.04105 31.1806 4.1514 31.4616 4.22079 31.5999C4.29018 31.7382 4.34691 31.9076 4.34691 31.9765C4.34691 32.1455 4.95098 32.7631 5.37789 33.0304C5.75476 33.2663 5.86883 33.6338 6.04431 35.1777C6.11844 35.8297 6.22384 36.514 6.27848 36.6983C6.38388 37.0537 6.40033 37.4357 6.31916 37.6423C6.27706 37.7495 6.22594 37.7155 5.96239 37.405C3.64813 34.6783 2.14292 31.3258 1.53337 27.5402C1.42749 26.8825 1.30868 23.6544 1.39046 23.6544C1.41252 23.6544 1.46384 23.7778 1.50439 23.9286ZM40.3935 24.4724C40.3689 24.5121 40.3651 24.5609 40.385 24.5809C40.4335 24.6294 40.5655 24.5439 40.5655 24.4639C40.5655 24.3772 40.4487 24.383 40.3935 24.4724ZM7.25794 25.078C7.25794 25.2316 7.32814 25.2517 7.44749 25.1322C7.56684 25.0127 7.5468 24.9424 7.39333 24.9424C7.30309 24.9424 7.25794 24.9876 7.25794 25.078ZM4.95619 25.4169C4.95619 25.4915 4.94448 25.5525 4.93026 25.5525C4.91598 25.5525 4.88836 25.4915 4.86886 25.4169C4.84943 25.3423 4.86108 25.2813 4.89486 25.2813C4.92857 25.2813 4.95619 25.3423 4.95619 25.4169ZM10.8459 29.2794C10.8459 29.3072 10.7698 29.3153 10.6767 29.2975C10.5836 29.2796 10.5075 29.2423 10.5075 29.2146C10.5075 29.1868 10.5836 29.1786 10.6767 29.1965C10.7698 29.2143 10.8459 29.2516 10.8459 29.2794Z" fill="#266294"></path>
<g clip-path="url(#clip0_732_2005)">
<path d="M30 3.33398C30 5.66732 27 7.66732 27 7.66732C27 7.66732 24 5.66732 24 3.33398C24 2.53833 24.3161 1.77527 24.8787 1.21266C25.4413 0.650055 26.2044 0.333984 27 0.333984C27.7956 0.333984 28.5587 0.650055 29.1213 1.21266C29.6839 1.77527 30 2.53833 30 3.33398Z" fill="#CFE7F5" stroke="#266294" stroke-width="0.5" stroke-linecap="round" stroke-linejoin="round"></path>
<path d="M27 4.33398C27.5523 4.33398 28 3.88627 28 3.33398C28 2.7817 27.5523 2.33398 27 2.33398C26.4477 2.33398 26 2.7817 26 3.33398C26 3.88627 26.4477 4.33398 27 4.33398Z" stroke="#266294" stroke-width="0.5" stroke-linecap="round" stroke-linejoin="round"></path>
</g>
<defs>
<clipPath id="SvgjsClipPath1000">
<rect width="8" height="8" fill="white" transform="translate(23)"></rect>
</clipPath>
</defs>
</svg><style>@media (prefers-color-scheme: light) { :root { filter: contrast(1) brightness(0.9); } }
</style></svg>